{
	"asset":{
		"generator":"Khronos glTF Blender I/O v4.4.56",
		"version":"2.0"
	},
	"scene":0,
	"scenes":[
		{
			"name":"Scene",
			"nodes":[
				0,
				1,
				2,
				3,
				4,
				5
			]
		}
	],
	"nodes":[
		{
			"mesh":0,
			"name":"Sudachi_1",
			"rotation":[
				-0.0011265825014561415,
				-0.8638576865196228,
				-0.026287389919161797,
				0.5030484199523926
			],
			"scale":[
				0.7872352004051208,
				0.7085115909576416,
				0.7872352004051208
			],
			"translation":[
				0,
				0.499630331993103,
				0
			]
		},
		{
			"mesh":1,
			"name":"Sudachi_2",
			"rotation":[
				-0.006380842067301273,
				0.6412093639373779,
				0.04099563509225845,
				0.7662436962127686
			],
			"scale":[
				0.8044112324714661,
				0.7239701151847839,
				0.8044112324714661
			],
			"translation":[
				2.5,
				0.4632669985294342,
				-1
			]
		},
		{
			"mesh":2,
			"name":"Sudachi_3",
			"rotation":[
				0.043322086334228516,
				-0.9623477458953857,
				-0.012658203020691872,
				0.26804816722869873
			],
			"scale":[
				0.8313245177268982,
				0.7481920719146729,
				0.8313245177268982
			],
			"translation":[
				-2,
				0.45862245559692383,
				-1.5
			]
		},
		{
			"mesh":3,
			"name":"Cut_Sudachi",
			"rotation":[
				0.035382676869630814,
				0.6988855600357056,
				-0.10565464943647385,
				0.7065013647079468
			],
			"scale":[
				0.800000011920929,
				0.8999999761581421,
				0.800000011920929
			],
			"translation":[
				-0.5,
				0.10000000149011612,
				-2.5
			]
		},
		{
			"mesh":4,
			"name":"Sudachi_4",
			"rotation":[
				-0.028304211795330048,
				-0.9714197516441345,
				0.0284371767193079,
				0.23395313322544098
			],
			"scale":[
				0.8342512845993042,
				0.7508261203765869,
				0.8342512845993042
			],
			"translation":[
				1,
				0.5005308389663696,
				2
			]
		},
		{
			"mesh":5,
			"name":"Sudachi_5",
			"rotation":[
				0.029112769290804863,
				0.988122820854187,
				0.03137214109301567,
				0.1475856602191925
			],
			"scale":[
				0.7904477119445801,
				0.7114030122756958,
				0.7904477715492249
			],
			"translation":[
				-1.5,
				0.5105836391448975,
				1
			]
		}
	],
	"materials":[
		{
			"doubleSided":true,
			"name":"Realistic_Sudachi_Sudachi_1",
			"pbrMetallicRoughness":{
				"metallicFactor":0,
				"roughnessFactor":0.800000011920929
			}
		},
		{
			"doubleSided":true,
			"name":"Heta_Material",
			"pbrMetallicRoughness":{
				"baseColorFactor":[
					0.800000011920929,
					0.800000011920929,
					0.800000011920929,
					1
				],
				"metallicFactor":0,
				"roughnessFactor":0.5
			}
		},
		{
			"doubleSided":true,
			"name":"Leaf_Material",
			"pbrMetallicRoughness":{
				"baseColorFactor":[
					0.800000011920929,
					0.800000011920929,
					0.800000011920929,
					1
				],
				"metallicFactor":0,
				"roughnessFactor":0.5
			}
		},
		{
			"doubleSided":true,
			"name":"Realistic_Sudachi_Sudachi_2",
			"pbrMetallicRoughness":{
				"metallicFactor":0,
				"roughnessFactor":0.800000011920929
			}
		},
		{
			"doubleSided":true,
			"name":"Realistic_Sudachi_Sudachi_3",
			"pbrMetallicRoughness":{
				"metallicFactor":0,
				"roughnessFactor":0.800000011920929
			}
		},
		{
			"doubleSided":true,
			"name":"Sudachi_CrossSection",
			"pbrMetallicRoughness":{
				"metallicFactor":0,
				"roughnessFactor":0.30000001192092896
			}
		},
		{
			"doubleSided":true,
			"name":"Realistic_Sudachi_Sudachi_4",
			"pbrMetallicRoughness":{
				"metallicFactor":0,
				"roughnessFactor":0.800000011920929
			}
		},
		{
			"doubleSided":true,
			"name":"Realistic_Sudachi_Sudachi_5",
			"pbrMetallicRoughness":{
				"metallicFactor":0,
				"roughnessFactor":0.800000011920929
			}
		}
	],
	"meshes":[
		{
			"name":"\u7403",
			"primitives":[
				{
					"attributes":{
						"POSITION":0,
						"NORMAL":1,
						"TEXCOORD_0":2
					},
					"indices":3,
					"material":0
				},
				{
					"attributes":{
						"POSITION":4,
						"NORMAL":5,
						"TEXCOORD_0":6
					},
					"indices":7,
					"material":1
				},
				{
					"attributes":{
						"POSITION":8,
						"NORMAL":9,
						"TEXCOORD_0":10
					},
					"indices":11,
					"material":2
				}
			]
		},
		{
			"name":"\u7403.001",
			"primitives":[
				{
					"attributes":{
						"POSITION":12,
						"NORMAL":13,
						"TEXCOORD_0":14
					},
					"indices":3,
					"material":3
				},
				{
					"attributes":{
						"POSITION":15,
						"NORMAL":16,
						"TEXCOORD_0":17
					},
					"indices":7,
					"material":1
				},
				{
					"attributes":{
						"POSITION":18,
						"NORMAL":19,
						"TEXCOORD_0":20
					},
					"indices":11,
					"material":2
				}
			]
		},
		{
			"name":"\u7403.002",
			"primitives":[
				{
					"attributes":{
						"POSITION":21,
						"NORMAL":22,
						"TEXCOORD_0":23
					},
					"indices":3,
					"material":4
				},
				{
					"attributes":{
						"POSITION":24,
						"NORMAL":25,
						"TEXCOORD_0":26
					},
					"indices":7,
					"material":1
				},
				{
					"attributes":{
						"POSITION":27,
						"NORMAL":28,
						"TEXCOORD_0":29
					},
					"indices":11,
					"material":2
				}
			]
		},
		{
			"name":"\u7403.003",
			"primitives":[
				{
					"attributes":{
						"POSITION":30,
						"NORMAL":31,
						"TEXCOORD_0":32
					},
					"indices":33,
					"material":5
				}
			]
		},
		{
			"name":"\u7403.004",
			"primitives":[
				{
					"attributes":{
						"POSITION":34,
						"NORMAL":35,
						"TEXCOORD_0":36
					},
					"indices":37,
					"material":6
				}
			]
		},
		{
			"name":"\u7403.005",
			"primitives":[
				{
					"attributes":{
						"POSITION":38,
						"NORMAL":39,
						"TEXCOORD_0":40
					},
					"indices":41,
					"material":7
				}
			]
		}
	],
	"accessors":[
		{
			"bufferView":0,
			"componentType":5126,
			"count":7993,
			"max":[
				0.9999997019767761,
				1,
				0.9999993443489075
			],
			"min":[
				-0.9999990463256836,
				-1,
				-1
			],
			"type":"VEC3"
		},
		{
			"bufferView":1,
			"componentType":5126,
			"count":7993,
			"type":"VEC3"
		},
		{
			"bufferView":2,
			"componentType":5126,
			"count":7993,
			"type":"VEC2"
		},
		{
			"bufferView":3,
			"componentType":5123,
			"count":46080,
			"type":"SCALAR"
		},
		{
			"bufferView":4,
			"componentType":5126,
			"count":901,
			"max":[
				0.07352347671985626,
				1.0556308031082153,
				0.07352346181869507
			],
			"min":[
				-0.07352347671985626,
				0.9443691968917847,
				-0.07352346181869507
			],
			"type":"VEC3"
		},
		{
			"bufferView":5,
			"componentType":5126,
			"count":901,
			"type":"VEC3"
		},
		{
			"bufferView":6,
			"componentType":5126,
			"count":901,
			"type":"VEC2"
		},
		{
			"bufferView":7,
			"componentType":5123,
			"count":3828,
			"type":"SCALAR"
		},
		{
			"bufferView":8,
			"componentType":5126,
			"count":25,
			"max":[
				0.1874999850988388,
				1.2108954191207886,
				0.0679420679807663
			],
			"min":[
				-0.1874999850988388,
				0.900215744972229,
				-0.0679420679807663
			],
			"type":"VEC3"
		},
		{
			"bufferView":9,
			"componentType":5126,
			"count":25,
			"type":"VEC3"
		},
		{
			"bufferView":10,
			"componentType":5126,
			"count":25,
			"type":"VEC2"
		},
		{
			"bufferView":11,
			"componentType":5123,
			"count":96,
			"type":"SCALAR"
		},
		{
			"bufferView":12,
			"componentType":5126,
			"count":7993,
			"max":[
				0.9999997019767761,
				1,
				0.9999993443489075
			],
			"min":[
				-0.9999990463256836,
				-1,
				-1
			],
			"type":"VEC3"
		},
		{
			"bufferView":13,
			"componentType":5126,
			"count":7993,
			"type":"VEC3"
		},
		{
			"bufferView":14,
			"componentType":5126,
			"count":7993,
			"type":"VEC2"
		},
		{
			"bufferView":15,
			"componentType":5126,
			"count":901,
			"max":[
				0.07352347671985626,
				1.0556308031082153,
				0.07352346181869507
			],
			"min":[
				-0.07352347671985626,
				0.9443691968917847,
				-0.07352346181869507
			],
			"type":"VEC3"
		},
		{
			"bufferView":16,
			"componentType":5126,
			"count":901,
			"type":"VEC3"
		},
		{
			"bufferView":17,
			"componentType":5126,
			"count":901,
			"type":"VEC2"
		},
		{
			"bufferView":18,
			"componentType":5126,
			"count":25,
			"max":[
				0.1874999850988388,
				1.2108954191207886,
				0.0679420679807663
			],
			"min":[
				-0.1874999850988388,
				0.900215744972229,
				-0.0679420679807663
			],
			"type":"VEC3"
		},
		{
			"bufferView":19,
			"componentType":5126,
			"count":25,
			"type":"VEC3"
		},
		{
			"bufferView":20,
			"componentType":5126,
			"count":25,
			"type":"VEC2"
		},
		{
			"bufferView":21,
			"componentType":5126,
			"count":7993,
			"max":[
				0.9999997019767761,
				1,
				0.9999993443489075
			],
			"min":[
				-0.9999990463256836,
				-1,
				-1
			],
			"type":"VEC3"
		},
		{
			"bufferView":22,
			"componentType":5126,
			"count":7993,
			"type":"VEC3"
		},
		{
			"bufferView":23,
			"componentType":5126,
			"count":7993,
			"type":"VEC2"
		},
		{
			"bufferView":24,
			"componentType":5126,
			"count":901,
			"max":[
				0.07352347671985626,
				1.0556308031082153,
				0.07352346181869507
			],
			"min":[
				-0.07352347671985626,
				0.9443691968917847,
				-0.07352346181869507
			],
			"type":"VEC3"
		},
		{
			"bufferView":25,
			"componentType":5126,
			"count":901,
			"type":"VEC3"
		},
		{
			"bufferView":26,
			"componentType":5126,
			"count":901,
			"type":"VEC2"
		},
		{
			"bufferView":27,
			"componentType":5126,
			"count":25,
			"max":[
				0.1874999850988388,
				1.2108954191207886,
				0.0679420679807663
			],
			"min":[
				-0.1874999850988388,
				0.900215744972229,
				-0.0679420679807663
			],
			"type":"VEC3"
		},
		{
			"bufferView":28,
			"componentType":5126,
			"count":25,
			"type":"VEC3"
		},
		{
			"bufferView":29,
			"componentType":5126,
			"count":25,
			"type":"VEC2"
		},
		{
			"bufferView":30,
			"componentType":5126,
			"count":7993,
			"max":[
				0.9999996423721313,
				1,
				0.9999993443489075
			],
			"min":[
				-0.9999990463256836,
				-1,
				-1
			],
			"type":"VEC3"
		},
		{
			"bufferView":31,
			"componentType":5126,
			"count":7993,
			"type":"VEC3"
		},
		{
			"bufferView":32,
			"componentType":5126,
			"count":7993,
			"type":"VEC2"
		},
		{
			"bufferView":33,
			"componentType":5123,
			"count":46080,
			"type":"SCALAR"
		},
		{
			"bufferView":34,
			"componentType":5126,
			"count":7993,
			"max":[
				0.9999996423721313,
				1,
				0.9999993443489075
			],
			"min":[
				-0.9999990463256836,
				-1,
				-1
			],
			"type":"VEC3"
		},
		{
			"bufferView":35,
			"componentType":5126,
			"count":7993,
			"type":"VEC3"
		},
		{
			"bufferView":36,
			"componentType":5126,
			"count":7993,
			"type":"VEC2"
		},
		{
			"bufferView":37,
			"componentType":5123,
			"count":46080,
			"type":"SCALAR"
		},
		{
			"bufferView":38,
			"componentType":5126,
			"count":7993,
			"max":[
				0.9999996423721313,
				1,
				0.9999994039535522
			],
			"min":[
				-0.9999990463256836,
				-1,
				-1
			],
			"type":"VEC3"
		},
		{
			"bufferView":39,
			"componentType":5126,
			"count":7993,
			"type":"VEC3"
		},
		{
			"bufferView":40,
			"componentType":5126,
			"count":7993,
			"type":"VEC2"
		},
		{
			"bufferView":41,
			"componentType":5123,
			"count":46080,
			"type":"SCALAR"
		}
	],
	"bufferViews":[
		{
			"buffer":0,
			"byteLength":95916,
			"byteOffset":0,
			"target":34962
		},
		{
			"buffer":0,
			"byteLength":95916,
			"byteOffset":95916,
			"target":34962
		},
		{
			"buffer":0,
			"byteLength":63944,
			"byteOffset":191832,
			"target":34962
		},
		{
			"buffer":0,
			"byteLength":92160,
			"byteOffset":255776,
			"target":34963
		},
		{
			"buffer":0,
			"byteLength":10812,
			"byteOffset":347936,
			"target":34962
		},
		{
			"buffer":0,
			"byteLength":10812,
			"byteOffset":358748,
			"target":34962
		},
		{
			"buffer":0,
			"byteLength":7208,
			"byteOffset":369560,
			"target":34962
		},
		{
			"buffer":0,
			"byteLength":7656,
			"byteOffset":376768,
			"target":34963
		},
		{
			"buffer":0,
			"byteLength":300,
			"byteOffset":384424,
			"target":34962
		},
		{
			"buffer":0,
			"byteLength":300,
			"byteOffset":384724,
			"target":34962
		},
		{
			"buffer":0,
			"byteLength":200,
			"byteOffset":385024,
			"target":34962
		},
		{
			"buffer":0,
			"byteLength":192,
			"byteOffset":385224,
			"target":34963
		},
		{
			"buffer":0,
			"byteLength":95916,
			"byteOffset":385416,
			"target":34962
		},
		{
			"buffer":0,
			"byteLength":95916,
			"byteOffset":481332,
			"target":34962
		},
		{
			"buffer":0,
			"byteLength":63944,
			"byteOffset":577248,
			"target":34962
		},
		{
			"buffer":0,
			"byteLength":10812,
			"byteOffset":641192,
			"target":34962
		},
		{
			"buffer":0,
			"byteLength":10812,
			"byteOffset":652004,
			"target":34962
		},
		{
			"buffer":0,
			"byteLength":7208,
			"byteOffset":662816,
			"target":34962
		},
		{
			"buffer":0,
			"byteLength":300,
			"byteOffset":670024,
			"target":34962
		},
		{
			"buffer":0,
			"byteLength":300,
			"byteOffset":670324,
			"target":34962
		},
		{
			"buffer":0,
			"byteLength":200,
			"byteOffset":670624,
			"target":34962
		},
		{
			"buffer":0,
			"byteLength":95916,
			"byteOffset":670824,
			"target":34962
		},
		{
			"buffer":0,
			"byteLength":95916,
			"byteOffset":766740,
			"target":34962
		},
		{
			"buffer":0,
			"byteLength":63944,
			"byteOffset":862656,
			"target":34962
		},
		{
			"buffer":0,
			"byteLength":10812,
			"byteOffset":926600,
			"target":34962
		},
		{
			"buffer":0,
			"byteLength":10812,
			"byteOffset":937412,
			"target":34962
		},
		{
			"buffer":0,
			"byteLength":7208,
			"byteOffset":948224,
			"target":34962
		},
		{
			"buffer":0,
			"byteLength":300,
			"byteOffset":955432,
			"target":34962
		},
		{
			"buffer":0,
			"byteLength":300,
			"byteOffset":955732,
			"target":34962
		},
		{
			"buffer":0,
			"byteLength":200,
			"byteOffset":956032,
			"target":34962
		},
		{
			"buffer":0,
			"byteLength":95916,
			"byteOffset":956232,
			"target":34962
		},
		{
			"buffer":0,
			"byteLength":95916,
			"byteOffset":1052148,
			"target":34962
		},
		{
			"buffer":0,
			"byteLength":63944,
			"byteOffset":1148064,
			"target":34962
		},
		{
			"buffer":0,
			"byteLength":92160,
			"byteOffset":1212008,
			"target":34963
		},
		{
			"buffer":0,
			"byteLength":95916,
			"byteOffset":1304168,
			"target":34962
		},
		{
			"buffer":0,
			"byteLength":95916,
			"byteOffset":1400084,
			"target":34962
		},
		{
			"buffer":0,
			"byteLength":63944,
			"byteOffset":1496000,
			"target":34962
		},
		{
			"buffer":0,
			"byteLength":92160,
			"byteOffset":1559944,
			"target":34963
		},
		{
			"buffer":0,
			"byteLength":95916,
			"byteOffset":1652104,
			"target":34962
		},
		{
			"buffer":0,
			"byteLength":95916,
			"byteOffset":1748020,
			"target":34962
		},
		{
			"buffer":0,
			"byteLength":63944,
			"byteOffset":1843936,
			"target":34962
		},
		{
			"buffer":0,
			"byteLength":92160,
			"byteOffset":1907880,
			"target":34963
		}
	],
	"buffers":[
		{
			"byteLength":2000040,
			"uri":"sudachi_collection.bin"
		}
	]
}
